<svg width="500" height="500" viewBox="0 0 500 500" fill="none" xmlns="http://www.w3.org/2000/svg">
<g clip-path="url(#clip0_3_2742)">
<path d="M457.176 0H42.8236C19.1728 0 0 19.1728 0 42.8236V457.176C0 480.827 19.1728 500 42.8236 500H457.176C480.827 500 500 480.827 500 457.176V42.8236C500 19.1728 480.827 0 457.176 0Z" fill="white"/>
<path d="M415.917 172.272C436.254 144.31 431.756 104.941 404.902 82.3881C378.829 60.4875 340.894 62.117 316.647 84.9302C295.92 77.0433 273.432 72.6762 249.967 72.6762C226.503 72.6762 204.015 77.0433 183.288 84.9302C159.106 62.117 121.171 60.5526 95.0333 82.3881C68.1138 104.941 63.6815 144.244 84.0178 172.272C69.8737 198.67 61.8564 228.784 61.8564 260.787C61.8564 364.49 146.265 448.898 249.967 448.898C353.67 448.898 438.079 364.49 438.079 260.787C438.079 228.784 430.061 198.67 415.917 172.272ZM249.967 396.754C175.01 396.754 114.001 335.745 114.001 260.787C114.001 185.83 175.01 124.821 249.967 124.821C324.925 124.821 385.934 185.83 385.934 260.787C385.934 335.745 324.925 396.754 249.967 396.754Z" fill="#949495"/>
</g>
<defs>
<clipPath id="clip0_3_2742">
<rect width="500" height="500" fill="white"/>
</clipPath>
</defs>
</svg>
