<svg width="500" height="500" viewBox="0 0 500 500" fill="none" xmlns="http://www.w3.org/2000/svg">
<g clip-path="url(#clip0_3_2695)">
<path d="M457.176 0H42.8236C19.1728 0 0 19.1728 0 42.8236V457.176C0 480.827 19.1728 500 42.8236 500H457.176C480.827 500 500 480.827 500 457.176V42.8236C500 19.1728 480.827 0 457.176 0Z" fill="white"/>
<path d="M340.829 104.745H394.994V158.91H340.829V104.745ZM181.528 147.047H223.765V189.284H181.528V147.047ZM88.3199 58.1411H158.78V128.601H88.3199V58.1411ZM439.578 314.236V300.482L249.968 224.808L60.3574 300.482V314.236L249.968 389.845L439.578 314.236Z" fill="#9C7743"/>
<path d="M440.099 348.846L249.967 425.629L59.9009 348.846L50.3193 372.572L249.967 453.265L449.681 372.572L440.099 348.846Z" fill="#9C7743"/>
</g>
<defs>
<clipPath id="clip0_3_2695">
<rect width="500" height="500" fill="white"/>
</clipPath>
</defs>
</svg>
