<svg width="500" height="500" viewBox="0 0 500 500" fill="none" xmlns="http://www.w3.org/2000/svg">
<g clip-path="url(#clip0_3_2748)">
<path d="M457.176 0H42.8236C19.1728 0 0 19.1728 0 42.8236V457.176C0 480.827 19.1728 500 42.8236 500H457.176C480.827 500 500 480.827 500 457.176V42.8236C500 19.1728 480.827 0 457.176 0Z" fill="white"/>
<path d="M351.743 270.407C351.743 270.407 325.931 225.694 313.612 206.661C300.772 186.65 288.713 162.794 279.327 124.468C269.941 86.2071 264.857 49.3149 249.735 49.3149C234.614 49.3149 229.529 86.142 220.143 124.468C210.757 162.729 198.699 186.585 185.858 206.661C173.605 225.759 147.728 270.407 147.728 270.407C136.691 288.746 130.876 309.752 130.911 331.156C130.911 396.532 184.359 449.589 249.735 449.589C315.111 449.589 368.56 396.597 368.56 331.156C368.56 308.929 362.367 288.202 351.743 270.407ZM249.735 422.865C196.418 422.865 154.507 383.105 154.507 354.425C154.507 335.458 196.418 370.851 249.735 370.851C303.053 370.851 344.964 335.458 344.964 354.425C344.964 383.17 303.053 422.865 249.735 422.865Z" fill="#9C7743"/>
</g>
<defs>
<clipPath id="clip0_3_2748">
<rect width="500" height="500" fill="white"/>
</clipPath>
</defs>
</svg>
