<svg width="500" height="500" viewBox="0 0 500 500" fill="none" xmlns="http://www.w3.org/2000/svg">
<g clip-path="url(#clip0_3_2692)">
<path d="M457.176 0H42.8236C19.1728 0 0 19.1728 0 42.8236V457.176C0 480.827 19.1728 500 42.8236 500H457.176C480.827 500 500 480.827 500 457.176V42.8236C500 19.1728 480.827 0 457.176 0Z" fill="#9FA244"/>
<path d="M249.439 183.66C302.235 183.66 348.448 161.238 373.738 127.801C348.448 86.8673 302.235 59.4263 249.439 59.4263C196.643 59.4263 150.43 86.8673 125.14 127.801C150.43 161.238 196.643 183.66 249.439 183.66ZM398.311 155.893C368.589 188.614 322.05 211.101 268.732 215.469L339.975 439.82C396.486 403.84 433.965 341.202 433.965 269.829C433.965 227.527 420.799 188.353 398.311 155.893ZM100.632 155.893C130.354 188.614 176.893 211.101 230.211 215.469L158.968 439.82C102.457 403.84 64.978 341.202 64.978 269.829C64.978 227.527 78.1445 188.353 100.632 155.893ZM249.439 356.324C260.259 356.324 271.014 353.912 280.921 349.219L272.448 318.323C265.57 322.729 257.574 325.07 249.406 325.07C241.239 325.07 233.243 322.729 226.365 318.323L217.892 349.219C227.864 353.912 238.619 356.324 249.374 356.324H249.439ZM249.439 415.899C265.93 415.899 281.899 412.77 296.825 407.034L288.156 375.422C276.098 380.571 262.997 383.308 249.439 383.308C235.881 383.308 222.845 380.571 210.722 375.422L202.053 407.034C216.979 412.77 232.948 415.899 249.439 415.899Z" fill="white"/>
</g>
<defs>
<clipPath id="clip0_3_2692">
<rect width="500" height="500" fill="white"/>
</clipPath>
</defs>
</svg>
