<svg width="500" height="500" viewBox="0 0 500 500" fill="none" xmlns="http://www.w3.org/2000/svg">
<g clip-path="url(#clip0_3_2715)">
<path d="M457.176 0H42.8236C19.1728 0 0 19.1728 0 42.8236V457.176C0 480.827 19.1728 500 42.8236 500H457.176C480.827 500 500 480.827 500 457.176V42.8236C500 19.1728 480.827 0 457.176 0Z" fill="white"/>
<path d="M363.577 248.338C328.901 214.77 339.721 188.763 355.69 174.945C355.69 174.945 313.127 169.796 298.005 204.472C282.818 239.148 312.084 257.007 312.084 257.007C312.084 257.007 269.847 240.191 281.71 198.996C292.204 162.756 311.498 143.723 302.829 105.267C293.052 61.7913 231.326 43.4104 201.473 54.817C222.331 61.8565 237.387 81.4758 237.387 104.745C237.387 131.86 215.943 149.85 187.133 178.986C153.826 212.554 119.867 250.489 119.867 311.368C119.867 381.632 163.212 425.108 215.161 440.881C188.828 428.302 134.011 388.802 140.855 312.802C148.025 232.63 224.873 177.878 224.873 177.878C224.873 177.878 208.317 205.645 215.552 250.619C219.593 275.909 237.713 307.001 254.986 320.493C279.233 339.46 311.302 359.145 306.674 395.125C302.307 428.888 257.463 444.01 234.845 445.379C245.144 447.074 255.638 447.791 266.002 447.465C342.98 447.465 400.143 390.236 400.143 329.357C400.143 281.189 377.069 261.374 363.512 248.338H363.577Z" fill="#E56C3E"/>
</g>
<defs>
<clipPath id="clip0_3_2715">
<rect width="500" height="500" fill="white"/>
</clipPath>
</defs>
</svg>
