<svg width="500" height="500" viewBox="0 0 500 500" fill="none" xmlns="http://www.w3.org/2000/svg">
<g clip-path="url(#clip0_3_2711)">
<path d="M457.176 0H42.8236C19.1728 0 0 19.1728 0 42.8236V457.176C0 480.827 19.1728 500 42.8236 500H457.176C480.827 500 500 480.827 500 457.176V42.8236C500 19.1728 480.827 0 457.176 0Z" fill="white"/>
<path d="M391.735 135.119C391.735 135.119 370.552 163.864 321.471 179.051C326.946 193.912 330.074 211.185 330.074 230.543C330.074 296.702 294.225 350.41 250.033 350.41C205.84 350.41 169.991 303.024 169.991 230.543C169.991 211.315 173.771 194.173 179.898 179.442C129.905 164.32 108.33 135.119 108.33 135.119C108.33 135.119 59.184 187.524 63.8119 247.164C66.5494 281.906 85.3214 322.774 131.274 360.448C131.274 360.448 180.42 403.859 250.033 403.859C319.646 403.859 368.792 360.448 368.792 360.448C414.744 322.774 433.516 281.971 436.254 247.164C440.947 187.524 391.735 135.119 391.735 135.119Z" fill="#4C4948"/>
<path d="M231.652 188.046C225.394 201.082 221.353 219.919 221.353 238.365C221.353 271.477 234.194 298.266 249.967 298.266C265.741 298.266 278.582 271.412 278.582 238.365C278.582 219.854 274.606 201.017 268.283 188.046C262.417 188.307 256.29 188.372 249.967 188.176C243.645 188.372 237.518 188.307 231.652 188.046Z" fill="#4C4948"/>
</g>
<defs>
<clipPath id="clip0_3_2711">
<rect width="500" height="500" fill="white"/>
</clipPath>
</defs>
</svg>
