<svg width="500" height="500" viewBox="0 0 500 500" fill="none" xmlns="http://www.w3.org/2000/svg">
<g clip-path="url(#clip0_3_2702)">
<path d="M457.176 0H42.8236C19.1728 0 0 19.1728 0 42.8236V457.176C0 480.827 19.1728 500 42.8236 500H457.176C480.827 500 500 480.827 500 457.176V42.8236C500 19.1728 480.827 0 457.176 0Z" fill="white"/>
<path d="M247.491 45.2353C263.786 52.6659 331.182 84.6044 376.809 124.886C378.829 126.646 379.025 129.774 377.265 131.795C367.162 143.528 333.855 182.31 293.704 229.501C291.944 231.587 292.139 234.715 294.16 236.54C305.892 246.904 342.915 280.146 365.272 304.524C367.097 306.479 366.967 309.542 365.011 311.433C345.587 330.139 249.446 422.631 212.163 454.634C210.207 456.329 207.209 454.504 207.796 451.962C212.619 432.277 226.046 379.937 240.321 341.872C241.103 339.851 240.451 337.57 238.691 336.266C224.677 325.577 163.343 278.516 123.061 242.406C122.246 241.679 121.7 240.698 121.511 239.622C121.322 238.546 121.5 237.437 122.018 236.475C130.883 219.398 172.859 140.529 241.429 46.9952C242.798 45.105 245.34 44.388 247.425 45.3657L247.491 45.2353Z" fill="#F6D851"/>
</g>
<defs>
<clipPath id="clip0_3_2702">
<rect width="500" height="500" fill="white"/>
</clipPath>
</defs>
</svg>
