<svg width="500" height="500" viewBox="0 0 500 500" fill="none" xmlns="http://www.w3.org/2000/svg">
<g clip-path="url(#clip0_3_2708)">
<path d="M457.176 0H42.8236C19.1728 0 0 19.1728 0 42.8236V457.176C0 480.827 19.1728 500 42.8236 500H457.176C480.827 500 500 480.827 500 457.176V42.8236C500 19.1728 480.827 0 457.176 0Z" fill="white"/>
<path d="M432.538 78.7383C418.329 64.529 330.791 58.1413 271.868 117.064C261.765 127.167 254.726 139.226 250.684 151.936C246.643 139.161 239.604 127.167 229.501 117.064C170.577 58.1413 83.04 64.529 68.8306 78.7383C54.6213 92.9477 48.2336 180.485 107.157 239.408C119.606 251.858 134.924 259.68 151.023 262.939C118.433 291.162 114.718 335.81 120.975 344.545C127.623 353.8 175.727 365.468 214.248 338.418C212.489 343.567 210.794 348.847 209.099 354.322C193 406.988 187.003 451.832 195.607 454.439C204.276 457.111 224.351 416.569 240.451 363.903C244.492 350.672 247.947 337.896 250.619 326.164C253.292 337.896 256.746 350.672 260.787 363.903C276.887 416.569 296.963 457.111 305.632 454.439C314.301 451.767 308.239 406.922 292.139 354.322C290.445 348.847 288.75 343.567 286.99 338.418C325.512 365.468 373.68 353.8 380.263 344.545C386.521 335.81 382.805 291.227 350.215 262.939C366.315 259.68 381.632 251.858 394.082 239.408C453.005 180.485 446.617 92.9477 432.408 78.7383H432.538ZM250.684 261.57C222.592 261.57 198.279 245.601 186.156 222.266C218.811 222.136 245.796 197.888 250.098 166.406C250.228 165.624 251.206 165.624 251.271 166.406C255.573 197.888 282.558 222.201 315.213 222.266C303.09 245.601 278.777 261.57 250.684 261.57Z" fill="#DAB4D4"/>
</g>
<defs>
<clipPath id="clip0_3_2708">
<rect width="500" height="500" fill="white"/>
</clipPath>
</defs>
</svg>
