<svg width="500" height="500" viewBox="0 0 500 500" fill="none" xmlns="http://www.w3.org/2000/svg">
<g clip-path="url(#clip0_3_2727)">
<path d="M457.176 0H42.8236C19.1728 0 0 19.1728 0 42.8236V457.176C0 480.827 19.1728 500 42.8236 500H457.176C480.827 500 500 480.827 500 457.176V42.8236C500 19.1728 480.827 0 457.176 0Z" fill="#66A945"/>
<path d="M74.7622 434.233H189.676C189.676 434.233 221.093 144.896 204.863 144.896C188.633 144.896 74.7622 434.233 74.7622 434.233ZM267.697 434.233H382.545C382.545 434.233 436.71 144.896 420.48 144.896C404.25 144.896 267.697 434.233 267.697 434.233ZM228.653 434.233L312.085 268.414C312.085 268.414 342.459 71.1772 328.315 71.1772C314.17 71.1772 242.667 246.774 242.667 246.774L228.588 434.233H228.653Z" fill="white"/>
</g>
<defs>
<clipPath id="clip0_3_2727">
<rect width="500" height="500" fill="white"/>
</clipPath>
</defs>
</svg>
