<svg width="500" height="500" viewBox="0 0 500 500" fill="none" xmlns="http://www.w3.org/2000/svg">
<g clip-path="url(#clip0_3_2730)">
<path d="M457.176 0H42.8236C19.1728 0 0 19.1728 0 42.8236V457.176C0 480.827 19.1728 500 42.8236 500H457.176C480.827 500 500 480.827 500 457.176V42.8236C500 19.1728 480.827 0 457.176 0Z" fill="white"/>
<path d="M267.24 178.269L327.076 386.977L440.295 304.719L387.955 143.658L267.24 178.269ZM340.894 245.079C324.469 245.079 311.172 231.782 311.172 215.356C311.172 198.931 324.469 185.634 340.894 185.634C357.32 185.634 370.617 198.931 370.617 215.356C370.617 231.782 357.32 245.079 340.894 245.079Z" fill="#69A9C7"/>
<path d="M247.034 249.055L219.072 151.61L375.961 106.635L367.618 81.0195H132.316L59.6401 304.719L247.034 249.055ZM169.665 99.2701C181.854 99.2701 191.696 109.112 191.696 121.301C191.696 133.49 181.854 143.332 169.665 143.332C157.476 143.332 147.634 133.49 147.634 121.301C147.634 109.112 157.476 99.2701 169.665 99.2701ZM254.465 274.932L87.016 324.664L249.967 443.098L293.573 411.355L254.465 274.932Z" fill="#69A9C7"/>
</g>
<defs>
<clipPath id="clip0_3_2730">
<rect width="500" height="500" fill="white"/>
</clipPath>
</defs>
</svg>
