<svg width="20" height="20" viewBox="0 0 20 20" fill="none" xmlns="http://www.w3.org/2000/svg">
<path d="M10.6035 6.49889L13.3716 16.1538L18.6091 12.3485L16.1879 4.89777L10.6035 6.49889ZM14.0108 9.58956C13.251 9.58956 12.6358 8.97444 12.6358 8.21456C12.6358 7.45473 13.251 6.8396 14.0108 6.8396C14.7707 6.8396 15.3858 7.45473 15.3858 8.21456C15.3858 8.97444 14.7707 9.58956 14.0108 9.58956Z" fill="white"/>
<path d="M9.66895 9.77342L8.37541 5.26556L15.6332 3.18499L15.2472 2H4.36203L1 12.3485L9.66895 9.77342ZM6.08982 2.84428C6.65369 2.84428 7.10898 3.29958 7.10898 3.86345C7.10898 4.42732 6.65369 4.88261 6.08982 4.88261C5.52595 4.88261 5.07065 4.42732 5.07065 3.86345C5.07065 3.29958 5.52595 2.84428 6.08982 2.84428ZM10.0127 10.9705L2.26643 13.2711L9.80464 18.75L11.8219 17.2815L10.0127 10.9705Z" fill="white"/>
</svg>
