<svg width="500" height="500" viewBox="0 0 500 500" fill="none" xmlns="http://www.w3.org/2000/svg">
<g clip-path="url(#clip0_3_2718)">
<path d="M457.176 0H42.8236C19.1728 0 0 19.1728 0 42.8236V457.176C0 480.827 19.1728 500 42.8236 500H457.176C480.827 500 500 480.827 500 457.176V42.8236C500 19.1728 480.827 0 457.176 0Z" fill="white"/>
<path d="M265.415 221.809H407.509V286.208H265.415V221.809ZM352.301 78.4121V193.521H407.509V78.4121H352.301ZM320.623 78.4121H265.415V193.521H320.623V78.4121ZM234.585 78.4121H179.377V229.761H234.585V78.4121ZM147.699 78.4121H92.4912V229.761H147.699V78.4121ZM239.147 283.275H92.4912V367.814L186.416 429.214L407.509 361.035V312.932H239.147V283.34V283.275Z" fill="#E09C40"/>
</g>
<defs>
<clipPath id="clip0_3_2718">
<rect width="500" height="500" fill="white"/>
</clipPath>
</defs>
</svg>
