<svg width="500" height="500" viewBox="0 0 500 500" fill="none" xmlns="http://www.w3.org/2000/svg">
<g clip-path="url(#clip0_3_2724)">
<path d="M457.176 0H42.8236C19.1728 0 0 19.1728 0 42.8236V457.176C0 480.827 19.1728 500 42.8236 500H457.176C480.827 500 500 480.827 500 457.176V42.8236C500 19.1728 480.827 0 457.176 0Z" fill="white"/>
<path d="M421.914 244.557C405.944 240.777 392.778 247.686 384.435 254.204C387.629 240.777 389.454 227.545 389.454 214.965C389.454 137.922 327.011 75.479 249.967 75.479C172.924 75.479 110.481 137.922 110.481 214.965C110.481 227.545 112.306 240.777 115.5 254.204C107.157 247.751 93.925 240.777 78.0209 244.557C55.1425 249.967 36.3053 282.884 35.1973 311.302C35.0017 317.168 42.1716 320.167 46.0824 315.8C52.4049 308.695 60.6829 301.395 66.4188 303.806C85.1908 311.758 86.6247 345.001 104.68 345.001C120.519 345.001 134.141 329.162 140.79 319.841C171.164 377.135 217.964 424.521 249.902 424.521C281.84 424.521 328.575 377.2 359.014 319.841C365.663 329.162 379.285 345.001 395.124 345.001C413.179 345.001 414.613 311.758 433.385 303.806C439.121 301.395 447.399 308.63 453.722 315.8C457.632 320.167 464.867 317.168 464.607 311.302C463.499 282.884 444.662 249.967 421.783 244.557H421.914ZM216.008 226.698C204.406 232.108 186.807 219.007 176.704 197.367C166.601 175.727 167.905 153.826 179.507 148.416C191.109 143.006 208.708 156.107 218.811 177.747C228.914 199.387 227.675 221.288 216.008 226.698ZM323.23 197.367C313.127 219.007 295.528 232.108 283.926 226.698C272.324 221.288 271.021 199.322 281.124 177.747C291.227 156.107 308.825 143.006 320.427 148.416C332.03 153.826 333.333 175.792 323.23 197.367Z" fill="#684870"/>
</g>
<defs>
<clipPath id="clip0_3_2724">
<rect width="500" height="500" fill="white"/>
</clipPath>
</defs>
</svg>
