<svg width="20" height="20" viewBox="0 0 20 20" fill="none" xmlns="http://www.w3.org/2000/svg">
<path d="M17.8899 9.82165C17.1511 9.64678 16.5421 9.9664 16.1561 10.2679C16.3039 9.64678 16.3883 9.03466 16.3883 8.4527C16.3883 4.88865 13.4997 2 9.93555 2C6.3715 2 3.48285 4.88865 3.48285 8.4527C3.48285 9.03466 3.56728 9.64678 3.71503 10.2679C3.32908 9.96941 2.71696 9.64678 1.98123 9.82165C0.922858 10.0719 0.0514381 11.5947 0.000181389 12.9093C-0.00886718 13.1807 0.322817 13.3194 0.503733 13.1174C0.796215 12.7887 1.17916 12.451 1.44451 12.5625C2.31291 12.9304 2.37924 14.4682 3.21449 14.4682C3.94721 14.4682 4.57737 13.7355 4.88496 13.3043C6.29008 15.9548 8.45508 18.1469 9.93255 18.1469C11.41 18.1469 13.572 15.9578 14.9801 13.3043C15.2877 13.7355 15.9179 14.4682 16.6506 14.4682C17.4858 14.4682 17.5522 12.9304 18.4206 12.5625C18.6859 12.451 19.0689 12.7857 19.3614 13.1174C19.5423 13.3194 19.877 13.1807 19.8649 12.9093C19.8137 11.5947 18.9423 10.0719 17.8839 9.82165H17.8899ZM8.36459 8.99548C7.82788 9.24575 7.01374 8.63969 6.54636 7.63861C6.07899 6.63753 6.13932 5.62438 6.67603 5.37411C7.21275 5.12384 8.02689 5.7299 8.49426 6.73098C8.96163 7.73206 8.90431 8.74521 8.36459 8.99548ZM13.3247 7.63861C12.8574 8.63969 12.0432 9.24575 11.5065 8.99548C10.9698 8.74521 10.9095 7.72905 11.3769 6.73098C11.8443 5.7299 12.6584 5.12384 13.1951 5.37411C13.7318 5.62438 13.7921 6.64054 13.3247 7.63861Z" fill="#D0D0D0"/>
</svg>
