<svg width="20" height="20" viewBox="0 0 20 20" fill="none" xmlns="http://www.w3.org/2000/svg">
<path d="M17.3791 5.87665C18.3199 4.58311 18.1118 2.76188 16.8695 1.71857C15.6633 0.705435 13.9084 0.780816 12.7868 1.83617C11.8279 1.47132 10.7876 1.26929 9.70211 1.26929C8.61665 1.26929 7.57634 1.47132 6.6175 1.83617C5.49882 0.780816 3.74393 0.708446 2.53478 1.71857C1.28947 2.76188 1.08443 4.58006 2.0252 5.87665C1.37089 7.09784 1 8.49093 1 9.97141C1 14.7688 4.90479 18.6735 9.70211 18.6735C14.4995 18.6735 18.4043 14.7688 18.4043 9.97141C18.4043 8.49093 18.0334 7.09784 17.3791 5.87665ZM9.70211 16.2613C6.23455 16.2613 3.41224 13.439 3.41224 9.97141C3.41224 6.50385 6.23455 3.68154 9.70211 3.68154C13.1697 3.68154 15.992 6.50385 15.992 9.97141C15.992 13.439 13.1697 16.2613 9.70211 16.2613Z" fill="white"/>
</svg>
