<svg width="500" height="500" viewBox="0 0 500 500" fill="none" xmlns="http://www.w3.org/2000/svg">
<g clip-path="url(#clip0_3_2737)">
<path d="M457.176 0H42.8236C19.1728 0 0 19.1728 0 42.8236V457.176C0 480.827 19.1728 500 42.8236 500H457.176C480.827 500 500 480.827 500 457.176V42.8236C500 19.1728 480.827 0 457.176 0Z" fill="white"/>
<path d="M310.911 369.899C307.327 339.395 281.45 315.734 249.968 315.734C218.485 315.734 192.609 339.395 189.024 369.899C114.001 375.375 59.9663 390.627 59.9663 408.551C59.9663 431.104 145.027 449.355 249.968 449.355C354.908 449.355 439.969 431.104 439.969 408.551C439.969 390.562 385.934 375.375 310.911 369.899Z" fill="#735198"/>
<path d="M184.526 224.352C224.844 224.352 257.528 191.667 257.528 151.349C257.528 111.031 224.844 78.3472 184.526 78.3472C144.208 78.3472 111.524 111.031 111.524 151.349C111.524 191.667 144.208 224.352 184.526 224.352Z" fill="#735198"/>
<path d="M334.246 288.163C358.149 288.163 377.526 268.786 377.526 244.883C377.526 220.981 358.149 201.604 334.246 201.604C310.343 201.604 290.966 220.981 290.966 244.883C290.966 268.786 310.343 288.163 334.246 288.163Z" fill="#735198"/>
</g>
<defs>
<clipPath id="clip0_3_2737">
<rect width="500" height="500" fill="white"/>
</clipPath>
</defs>
</svg>
