<svg width="20" height="20" viewBox="0 0 20 20" fill="none" xmlns="http://www.w3.org/2000/svg">
<path d="M12.6089 14.4874C12.4431 13.0763 11.246 11.9817 9.78959 11.9817C8.33317 11.9817 7.13613 13.0763 6.97029 14.4874C3.49968 14.7407 1 15.4463 1 16.2755C1 17.3188 4.93496 18.1631 9.78959 18.1631C14.6442 18.1631 18.5792 17.3188 18.5792 16.2755C18.5792 15.4433 16.0795 14.7407 12.6089 14.4874Z" fill="#D0D0D0"/>
<path d="M6.76225 7.75427C8.62738 7.75427 10.1394 6.24224 10.1394 4.37711C10.1394 2.51197 8.62738 1 6.76225 1C4.89711 1 3.38513 2.51197 3.38513 4.37711C3.38513 6.24224 4.89711 7.75427 6.76225 7.75427Z" fill="#D0D0D0"/>
<path d="M13.6882 10.7062C14.794 10.7062 15.6904 9.80978 15.6904 8.70402C15.6904 7.5983 14.794 6.7019 13.6882 6.7019C12.5824 6.7019 11.686 7.5983 11.686 8.70402C11.686 9.80978 12.5824 10.7062 13.6882 10.7062Z" fill="#D0D0D0"/>
</svg>
