<svg width="20" height="20" viewBox="0 0 20 20" fill="none" xmlns="http://www.w3.org/2000/svg">
<path d="M2.59133 6.10269C0.191222 9.09987 0.527979 13.3745 3.45319 15.9947C3.76428 15.0183 4.34932 14.1096 5.19405 13.3908C4.54416 12.561 4.14546 11.578 4.04108 10.5483C2.57706 9.485 2.04339 7.68399 2.59133 6.09999V6.10269ZM17.4087 6.10269C17.9566 7.68674 17.4229 9.48775 15.9589 10.551C15.8505 11.6034 15.4395 12.5771 14.8059 13.3936C15.6507 14.1123 16.2357 15.0183 16.5468 15.9974C19.472 13.38 19.8088 9.10258 17.4087 6.1054V6.10269ZM13.7129 6.46344C13.3933 4.45357 12.6769 2.1969 12.3173 1.13636C12.2546 0.951922 11.9577 0.957348 11.9064 1.1445C11.5725 2.30539 11.1644 4.1525 10.9818 4.99608C10.6764 4.94181 10.3282 4.90927 10.0057 4.90927C9.6832 4.90927 9.33503 4.93911 9.02968 4.99608C8.84701 4.1525 8.43894 2.3081 8.10504 1.1445C8.05079 0.957348 7.75687 0.949208 7.69408 1.13636C7.33449 2.1969 6.61529 4.45086 6.29851 6.46344C5.53653 7.27443 5.07137 8.3431 5.07137 9.53656C5.07137 11.2589 6.03309 13.2932 7.46575 14.4758L7.85959 17.8038C7.85959 18.2921 8.82135 19 10.0086 19C11.1958 19 12.1575 18.2893 12.1575 17.8038L12.5514 14.4758C13.984 13.2932 14.9458 11.2589 14.9458 9.53656C14.9458 8.3431 14.4806 7.27443 13.7186 6.46344H13.7129ZM7.56278 12.8402C6.71231 12.5907 6.11873 11.861 6.09303 11.0148C6.05879 10.0194 6.11304 8.9561 6.11304 8.9561L8.7386 13.1358C8.27913 13.0355 7.89098 12.9351 7.56278 12.8402ZM12.4429 12.8402C12.1176 12.9351 11.7266 13.0382 11.2671 13.1358L13.8927 8.9561C13.8927 8.9561 13.9469 10.0194 13.9127 11.0148C13.8986 11.4268 13.7493 11.8242 13.4858 12.1515C13.2222 12.4788 12.8576 12.7196 12.4429 12.8402Z" fill="white"/>
</svg>
