<svg width="500" height="500" viewBox="0 0 500 500" fill="none" xmlns="http://www.w3.org/2000/svg">
<g clip-path="url(#clip0_3_2699)">
<path d="M457.176 0H42.8236C19.1728 0 0 19.1728 0 42.8236V457.176C0 480.827 19.1728 500 42.8236 500H457.176C480.827 500 500 480.827 500 457.176V42.8236C500 19.1728 480.827 0 457.176 0Z" fill="white"/>
<path d="M80.7587 156.303C25.9419 228.328 33.6332 331.052 100.443 394.017C107.548 370.552 120.91 348.716 140.203 331.443C125.36 311.501 116.254 287.879 113.87 263.134C80.4328 237.583 68.244 194.303 80.7587 156.238V156.303ZM419.176 156.303C431.691 194.369 419.502 237.649 386.064 263.199C383.588 288.489 374.202 311.889 359.731 331.509C379.025 348.781 392.387 370.552 399.492 394.082C466.302 331.183 473.993 228.393 419.176 156.368V156.303ZM334.767 164.972C327.467 116.673 311.107 62.4432 302.894 36.9576C301.46 32.5253 294.681 32.6557 293.508 37.1531C285.882 65.0504 276.561 109.438 272.39 129.71C265.415 128.406 257.463 127.624 250.098 127.624C242.732 127.624 234.78 128.341 227.806 129.71C223.634 109.438 214.314 65.1156 206.688 37.1531C205.449 32.6557 198.736 32.4601 197.302 36.9576C189.089 62.4432 172.663 116.608 165.428 164.972C148.025 184.461 137.401 210.142 137.401 238.822C137.401 280.211 159.366 329.097 192.087 357.516L201.082 437.492C201.082 449.225 223.048 466.237 250.163 466.237C277.278 466.237 299.244 449.159 299.244 437.492L308.239 357.516C340.959 329.097 362.925 280.211 362.925 238.822C362.925 210.142 352.301 184.461 334.898 164.972H334.767ZM194.303 318.212C174.879 312.215 161.322 294.681 160.735 274.345C159.953 250.424 161.192 224.873 161.192 224.873L221.158 325.316C210.664 322.905 201.799 320.493 194.303 318.212ZM305.762 318.212C298.331 320.493 289.402 322.97 278.908 325.316L338.874 224.873C338.874 224.873 340.112 250.424 339.33 274.345C339.009 284.245 335.6 293.796 329.581 301.662C323.561 309.527 315.233 315.314 305.762 318.212Z" fill="#535CA8"/>
</g>
<defs>
<clipPath id="clip0_3_2699">
<rect width="500" height="500" fill="white"/>
</clipPath>
</defs>
</svg>
