<svg width="20" height="20" viewBox="0 0 20 20" fill="none" xmlns="http://www.w3.org/2000/svg">
<path d="M14.5077 11.2279C14.5077 11.2279 13.2795 9.1594 12.6933 8.27892C12.0824 7.3532 11.5086 6.24961 11.062 4.47663C10.6154 2.70666 10.3735 1 9.65393 1C8.93444 1 8.69248 2.70364 8.24587 4.47663C7.79927 6.2466 7.22552 7.3502 6.61451 8.27892C6.03149 9.16241 4.8002 11.2279 4.8002 11.2279C4.27503 12.0762 3.99834 13.048 4.00001 14.0381C4.00001 17.0625 6.54319 19.5169 9.65393 19.5169C12.7647 19.5169 15.3079 17.0655 15.3079 14.0381C15.3079 13.0099 15.0132 12.0511 14.5077 11.2279ZM9.65393 18.2807C7.11698 18.2807 5.12276 16.4413 5.12276 15.1146C5.12276 14.2372 7.11698 15.8745 9.65393 15.8745C12.1909 15.8745 14.1851 14.2372 14.1851 15.1146C14.1851 16.4443 12.1909 18.2807 9.65393 18.2807Z" fill="#D0D0D0"/>
</svg>
