<svg width="500" height="500" viewBox="0 0 500 500" fill="none" xmlns="http://www.w3.org/2000/svg">
<g clip-path="url(#clip0_3_2745)">
<path d="M457.176 0H42.8236C19.1728 0 0 19.1728 0 42.8236V457.176C0 480.827 19.1728 500 42.8236 500H457.176C480.827 500 500 480.827 500 457.176V42.8236C500 19.1728 480.827 0 457.176 0Z" fill="white"/>
<path d="M382.675 117.325L400.078 193.717L306.284 99.9219L382.675 117.325L327.728 62.3779H172.272L62.3779 172.272V327.728L116.022 381.372L86.7555 252.836L244.558 410.638L116.022 381.372L172.272 437.622H327.728L382.675 382.675L254.139 411.941L411.941 254.139L382.675 382.675L437.622 327.728V172.272L382.675 117.325Z" fill="#BFB889"/>
</g>
<defs>
<clipPath id="clip0_3_2745">
<rect width="500" height="500" fill="white"/>
</clipPath>
</defs>
</svg>
