<svg width="20" height="20" viewBox="0 0 20 20" fill="none" xmlns="http://www.w3.org/2000/svg">
<path d="M9.53328 6.58748C11.9757 6.58748 14.1135 5.57904 15.2834 4.07519C14.1135 2.23417 11.9757 1 9.53328 1C7.0909 1 4.95306 2.23417 3.78313 4.07519C4.95306 5.57904 7.0909 6.58748 9.53328 6.58748ZM16.4202 5.33865C15.0452 6.81029 12.8923 7.82166 10.4258 8.01811L13.7215 18.1084C16.3358 16.4902 18.0696 13.673 18.0696 10.463C18.0696 8.56043 17.4605 6.79855 16.4202 5.33865ZM2.64938 5.33865C4.02433 6.81029 6.17725 7.82166 8.64378 8.01811L5.34803 18.1084C2.7338 16.4902 1 13.673 1 10.463C1 8.56043 1.60909 6.79855 2.64938 5.33865ZM9.53328 14.3531C10.0338 14.3531 10.5313 14.2447 10.9897 14.0336L10.5977 12.644C10.2795 12.8422 9.90961 12.9475 9.53175 12.9475C9.15394 12.9475 8.78404 12.8422 8.46586 12.644L8.07389 14.0336C8.5352 14.2447 9.03274 14.3531 9.53027 14.3531H9.53328ZM9.53328 17.0326C10.2962 17.0326 11.0349 16.8918 11.7254 16.6339L11.3243 15.2121C10.7665 15.4437 10.1605 15.5668 9.53328 15.5668C8.90608 15.5668 8.30302 15.4437 7.7422 15.2121L7.34117 16.6339C8.03166 16.8918 8.77039 17.0326 9.53328 17.0326Z" fill="white"/>
</svg>
