<svg width="20" height="20" viewBox="0 0 20 20" fill="none" xmlns="http://www.w3.org/2000/svg">
<path d="M15.2742 9.85257C13.67 8.34283 14.1706 7.17315 14.9093 6.55168C14.9093 6.55168 12.9403 6.3201 12.2408 7.87967C11.5382 9.43925 12.8921 10.2425 12.8921 10.2425C12.8921 10.2425 10.9382 9.48616 11.487 7.63339C11.9724 6.00347 12.865 5.14745 12.4639 3.41787C12.0116 1.46253 9.15616 0.635836 7.77514 1.14885C8.74005 1.46546 9.43655 2.34785 9.43655 3.3944C9.43655 4.61391 8.44453 5.42302 7.11177 6.73343C5.57096 8.24317 4 9.94932 4 12.6874C4 15.8475 6.00517 17.8029 8.40836 18.5123C7.19018 17.9466 4.65431 16.17 4.97092 12.7519C5.30261 9.1461 8.85764 6.68359 8.85764 6.68359C8.85764 6.68359 8.09175 7.93243 8.42645 9.95516C8.61338 11.0926 9.45163 12.491 10.2507 13.0978C11.3724 13.9508 12.8559 14.8362 12.6418 16.4544C12.4398 17.9729 10.3653 18.653 9.31895 18.7146C9.79539 18.7908 10.2808 18.8231 10.7603 18.8084C14.3213 18.8084 16.9657 16.2345 16.9657 13.4964C16.9657 11.3301 15.8983 10.4389 15.2712 9.85257H15.2742Z" fill="#D0D0D0"/>
</svg>
