<svg width="20" height="20" viewBox="0 0 20 20" fill="none" xmlns="http://www.w3.org/2000/svg">
<path d="M4.88591 6.60368C4.30094 7.90235 2.62446 13.3814 2.22946 16.3217C2.02744 17.8139 1.83445 18.3328 2.22946 18.4471C2.72998 18.5937 4.83771 15.4247 5.58852 14.2052C5.58852 14.2052 10.3888 14.9058 12.8523 11.9215C12.9096 11.8512 12.8463 11.7485 12.7559 11.7661C11.7849 11.9274 8.29018 12.4521 6.74337 11.8687C6.74337 11.8687 13.0423 12.1062 15.9038 7.56818C15.943 7.50954 15.8797 7.4333 15.8134 7.45678C14.8213 7.80561 10.5366 9.17467 7.97057 8.52972C7.97057 8.52972 12.1407 8.29225 15.2917 5.50731C18.4427 2.72235 18.702 1.31521 18.4758 1.09535C18.0477 0.679074 15.8676 1.72856 14.1127 2.26503C12.3578 2.8015 10.1506 3.43471 8.69727 3.72786C7.24391 4.02101 6.04081 4.04448 4.88591 6.60368Z" fill="#D0D0D0"/>
</svg>
