<svg width="500" height="500" viewBox="0 0 500 500" fill="none" xmlns="http://www.w3.org/2000/svg">
<g clip-path="url(#clip0_3_2721)">
<path d="M457.176 0H42.8236C19.1728 0 0 19.1728 0 42.8236V457.176C0 480.827 19.1728 500 42.8236 500H457.176C480.827 500 500 480.827 500 457.176V42.8236C500 19.1728 480.827 0 457.176 0Z" fill="white"/>
<path d="M154.999 180.55C142.354 209.425 106.114 331.248 97.5754 396.624C93.2083 429.801 89.0367 441.338 97.5754 443.88C108.395 447.139 153.957 376.679 170.187 349.564C170.187 349.564 273.954 365.142 327.206 298.788C328.445 297.224 327.076 294.942 325.121 295.333C304.133 298.918 228.588 310.586 195.151 297.615C195.151 297.615 331.313 302.894 393.169 201.995C394.016 200.691 392.648 198.996 391.214 199.518C369.769 207.274 277.148 237.714 221.679 223.374C221.679 223.374 311.824 218.094 379.938 156.173C448.051 94.2513 453.657 62.9646 448.768 58.0761C439.513 48.8205 392.387 72.1551 354.452 84.0831C316.517 96.0112 268.805 110.09 237.388 116.608C205.971 123.126 179.964 123.648 154.999 180.55Z" fill="#A2C3E7"/>
</g>
<defs>
<clipPath id="clip0_3_2721">
<rect width="500" height="500" fill="white"/>
</clipPath>
</defs>
</svg>
