<svg width="20" height="20" viewBox="0 0 20 20" fill="none" xmlns="http://www.w3.org/2000/svg">
<path d="M16.1841 4C16.1841 4 15.2042 5.32976 12.9337 6.03232C13.187 6.7198 13.3317 7.51886 13.3317 8.41437C13.3317 11.4749 11.6733 13.9595 9.62892 13.9595C7.58453 13.9595 5.92613 11.7674 5.92613 8.41437C5.92613 7.52487 6.101 6.73187 6.38444 6.05041C4.07173 5.35086 3.07366 4 3.07366 4C3.07366 4 0.800134 6.42429 1.01422 9.18327C1.14086 10.7905 2.00927 12.681 4.13506 14.4239C4.13506 14.4239 6.40858 16.4321 9.62892 16.4321C12.8493 16.4321 15.1228 14.4239 15.1228 14.4239C17.2486 12.681 18.117 10.7935 18.2436 9.18327C18.4607 6.42429 16.1841 4 16.1841 4Z" fill="#D0D0D0"/>
<path d="M8.77881 6.44849C8.48931 7.05154 8.30237 7.92295 8.30237 8.77627C8.30237 10.3081 8.8964 11.5473 9.62607 11.5473C10.3558 11.5473 10.9498 10.305 10.9498 8.77627C10.9498 7.91994 10.7659 7.04853 10.4734 6.44849C10.202 6.46056 9.91857 6.46357 9.62607 6.4545C9.33361 6.46357 9.05017 6.46056 8.77881 6.44849Z" fill="#D0D0D0"/>
</svg>
