<svg width="20" height="20" viewBox="0 0 20 20" fill="none" xmlns="http://www.w3.org/2000/svg">
<g clip-path="url(#clip0_998_37)">
<path d="M8.00285 2.09593L10.0988 0L12.1944 2.09563L10.0988 4.19157L8.00285 2.09593ZM2 13.1027H4.96404V16.0667H2V13.1027ZM8.00253 18.146L10.0985 16.0504L12.1941 18.146L10.0985 20.242L8.00253 18.146ZM15.2341 4.21053V7.1565L10.0991 4.19245L4.96404 7.1565V4.21053H2V7.17459H4.96404V13.0846L10.0991 16.0486L15.2341 13.0846V7.17459H18.1981V4.21053H15.2341ZM7.92504 8.90538V11.8061H6.38424V8.00682H6.39932L9.67392 6.11624L10.4428 7.44896L7.92204 8.90538H7.92504ZM15.2341 13.1027H18.1981V16.0667H15.2341V13.1027Z" fill="#D0D0D0"/>
</g>
<defs>
<clipPath id="clip0_998_37">
<rect width="20" height="20" fill="white"/>
</clipPath>
</defs>
</svg>
