<svg width="500" height="500" viewBox="0 0 500 500" fill="none" xmlns="http://www.w3.org/2000/svg">
<g clip-path="url(#clip0_3_2734)">
<path d="M457.176 0H42.8236C19.1728 0 0 19.1728 0 42.8236V457.176C0 480.827 19.1728 500 42.8236 500H457.176C480.827 500 500 480.827 500 457.176V42.8236C500 19.1728 480.827 0 457.176 0Z" fill="white"/>
<path d="M204.654 76.5023L249.961 31.1953L295.261 76.4958L249.961 121.803L204.654 76.5023ZM74.8923 314.431H138.965V378.503H74.8923V314.431ZM204.647 423.452L249.954 378.151L295.255 423.452L249.954 468.759L204.647 423.452ZM360.97 122.213V185.895L249.967 121.822L138.965 185.895V122.213H74.8923V186.286H138.965V314.04L249.967 378.112L360.97 314.04V186.286H425.042V122.213H360.97ZM202.972 223.7V286.403H169.665V204.276H169.991L240.777 163.408L257.398 192.217L202.907 223.7H202.972ZM360.97 314.431H425.042V378.503H360.97V314.431Z" fill="#6DC8EB"/>
</g>
<defs>
<clipPath id="clip0_3_2734">
<rect width="500" height="500" fill="white"/>
</clipPath>
</defs>
</svg>
