<svg width="20" height="20" viewBox="0 0 20 20" fill="none" xmlns="http://www.w3.org/2000/svg">
<path d="M10.4222 3.62331C10.5097 3.62331 10.6002 3.67156 10.6393 3.76806C11.4294 5.66465 13.2898 6.87983 15.304 6.87983C15.5181 6.87983 15.7352 6.86475 15.9523 6.83759H15.9855C16.1754 6.83759 16.29 7.05774 16.1694 7.21753C14.7884 9.02067 14.7884 11.5415 16.1634 13.3476C16.284 13.5044 16.1664 13.7245 15.9794 13.7245H15.9463C15.7292 13.6974 15.5151 13.6823 15.301 13.6823C13.2868 13.6823 11.4264 14.8945 10.6363 16.7941C10.5972 16.8906 10.5067 16.9388 10.4192 16.9388C10.3318 16.9388 10.2414 16.8906 10.2021 16.7941C9.41214 14.8975 7.55172 13.6823 5.53749 13.6823C5.3234 13.6823 5.1063 13.6974 4.88919 13.7245H4.85603C4.66608 13.7245 4.55149 13.5044 4.67209 13.3446C6.05311 11.5415 6.05311 9.02067 4.67815 7.21452C4.55751 7.05774 4.6751 6.83759 4.86209 6.83759H4.89526C5.11236 6.86475 5.3264 6.87983 5.5405 6.87983C7.55473 6.87983 9.41515 5.66766 10.2051 3.76806C10.2444 3.67156 10.3348 3.62331 10.4222 3.62331ZM10.4222 1.00001C9.26438 1.00001 8.22713 1.69051 7.78386 2.76094C7.41299 3.65347 6.51142 4.25653 5.5405 4.25653C5.43798 4.25653 5.33547 4.25051 5.23296 4.23543C5.11236 4.22035 4.9887 4.21128 4.86509 4.21128C3.77353 4.21128 2.79056 4.8204 2.3051 5.80033C2.06657 6.27696 1.96693 6.81104 2.01759 7.3416C2.06824 7.87212 2.26714 8.3777 2.59155 8.80057C3.2519 9.66897 3.2519 10.8811 2.59155 11.7465C2.26549 12.169 2.06511 12.6749 2.01337 13.2061C1.96164 13.7372 2.06066 14.2723 2.29907 14.7497C2.53299 15.2289 2.89725 15.6324 3.35004 15.914C3.80286 16.1956 4.32583 16.3439 4.85903 16.3418C4.98269 16.3418 5.1063 16.3328 5.22995 16.3177C5.33246 16.3056 5.43798 16.2966 5.5405 16.2966C6.51142 16.2966 7.41299 16.8966 7.78386 17.7921C8.23014 18.8626 9.26438 19.5531 10.4222 19.5531C11.5801 19.5531 12.6174 18.8626 13.0606 17.7921C13.4315 16.8996 14.3331 16.2966 15.304 16.2966C15.4065 16.2966 15.5091 16.3026 15.6116 16.3177C15.7322 16.3328 15.8558 16.3418 15.9794 16.3418C17.071 16.3418 18.0539 15.7327 18.5394 14.7527C18.778 14.2762 18.8776 13.7421 18.827 13.2115C18.7763 12.681 18.5774 12.1754 18.253 11.7525C17.5926 10.8841 17.5926 9.67198 18.253 8.80658C18.9193 7.93517 19.0309 6.78633 18.5455 5.80339C18.3115 5.32422 17.9473 4.92069 17.4945 4.6391C17.0417 4.35747 16.5187 4.2092 15.9855 4.21128C15.8618 4.21128 15.7382 4.22035 15.6146 4.23543C15.5121 4.24746 15.4065 4.25653 15.304 4.25653C14.3331 4.25653 13.4315 3.65648 13.0606 2.76094C12.8451 2.23882 12.4792 1.79261 12.0094 1.47905C11.5396 1.16548 10.9871 0.99873 10.4222 1.00001Z" fill="#D0D0D0"/>
</svg>
