<svg width="500" height="500" viewBox="0 0 500 500" fill="none" xmlns="http://www.w3.org/2000/svg">
<g clip-path="url(#clip0_3_2705)">
<path d="M457.176 0H42.8236C19.1728 0 0 19.1728 0 42.8236V457.176C0 480.827 19.1728 500 42.8236 500H457.176C480.827 500 500 480.827 500 457.176V42.8236C500 19.1728 480.827 0 457.176 0Z" fill="white"/>
<path d="M249.967 106.114C251.858 106.114 253.813 107.157 254.66 109.243C271.738 150.241 311.954 176.509 355.495 176.509C360.123 176.509 364.816 176.183 369.509 175.596H370.226C374.332 175.596 376.809 180.355 374.202 183.809C344.349 222.787 344.349 277.278 374.071 316.321C376.678 319.711 374.136 324.469 370.095 324.469H369.378C364.685 323.882 360.057 323.556 355.43 323.556C311.889 323.556 271.673 349.759 254.595 390.823C253.748 392.908 251.793 393.951 249.902 393.951C248.012 393.951 246.057 392.908 245.209 390.823C228.132 349.824 187.916 323.556 144.375 323.556C139.747 323.556 135.054 323.882 130.361 324.469H129.644C125.538 324.469 123.061 319.711 125.668 316.256C155.521 277.278 155.521 222.787 125.799 183.744C123.191 180.355 125.733 175.596 129.775 175.596H130.492C135.185 176.183 139.812 176.509 144.44 176.509C187.981 176.509 228.197 150.306 245.274 109.243C246.122 107.157 248.077 106.114 249.967 106.114ZM249.967 49.4069C224.938 49.4069 202.516 64.3332 192.934 87.4723C184.917 106.766 165.428 119.802 144.44 119.802C142.224 119.802 140.008 119.672 137.792 119.346C135.185 119.02 132.512 118.824 129.84 118.824C106.244 118.824 84.9955 131.991 74.5015 153.174C69.3452 163.477 67.1914 175.022 68.2864 186.491C69.3814 197.959 73.681 208.888 80.6936 218.029C94.9681 236.801 94.9681 263.004 80.6936 281.71C73.6453 290.844 69.3136 301.779 68.1953 313.261C67.077 324.743 69.2175 336.309 74.3711 346.63C79.4278 356.988 87.3017 365.711 97.0896 371.798C106.878 377.885 118.183 381.09 129.709 381.046C132.382 381.046 135.054 380.85 137.727 380.524C139.943 380.263 142.224 380.068 144.44 380.068C165.428 380.068 184.917 393.039 192.934 412.397C202.581 435.536 224.938 450.463 249.967 450.463C274.997 450.463 297.419 435.536 307 412.397C315.018 393.104 334.507 380.068 355.495 380.068C357.711 380.068 359.927 380.198 362.143 380.524C364.75 380.85 367.423 381.046 370.095 381.046C393.691 381.046 414.939 367.879 425.434 346.695C430.59 336.393 432.744 324.848 431.649 313.379C430.554 301.91 426.254 290.981 419.241 281.841C404.967 263.069 404.967 236.866 419.241 218.159C433.646 199.322 436.058 174.488 425.564 153.24C420.507 142.882 412.633 134.159 402.845 128.072C393.057 121.984 381.752 118.779 370.226 118.824C367.553 118.824 364.881 119.02 362.208 119.346C359.992 119.606 357.711 119.802 355.495 119.802C334.507 119.802 315.018 106.831 307 87.4723C302.342 76.186 294.431 66.5403 284.276 59.7621C274.12 52.9838 262.177 49.3793 249.967 49.4069Z" fill="#DD6B7B"/>
</g>
<defs>
<clipPath id="clip0_3_2705">
<rect width="500" height="500" fill="white"/>
</clipPath>
</defs>
</svg>
