<svg width="20" height="20" viewBox="0 0 20 20" fill="none" xmlns="http://www.w3.org/2000/svg">
<path d="M9.83131 1.01416C10.5851 1.3579 13.7029 2.8354 15.8136 4.69885C15.9071 4.78027 15.9162 4.92497 15.8347 5.01846C15.3674 5.56124 13.8266 7.35532 11.9692 9.5384C11.8877 9.6349 11.8968 9.7796 11.9902 9.86403C12.533 10.3435 14.2457 11.8813 15.2799 13.009C15.3644 13.0994 15.3583 13.2411 15.2679 13.3286C14.3693 14.194 9.92175 18.4727 8.19701 19.9532C8.10653 20.0316 7.96784 19.9472 7.99499 19.8296C8.21811 18.9189 8.83925 16.4977 9.49962 14.7368C9.5358 14.6433 9.50563 14.5377 9.42421 14.4774C8.77592 13.9829 5.93857 11.8059 4.0751 10.1354C4.0374 10.1018 4.01214 10.0564 4.0034 10.0066C3.99466 9.95683 4.00289 9.90553 4.02685 9.86102C4.43695 9.07103 6.37879 5.4225 9.55088 1.09557C9.61421 1.00813 9.7318 0.974962 9.82826 1.02019L9.83131 1.01416Z" fill="#D0D0D0"/>
</svg>
