<svg width="20" height="20" viewBox="0 0 20 20" fill="none" xmlns="http://www.w3.org/2000/svg">
<path d="M18.272 1.44668C17.6147 0.789352 13.5651 0.493854 10.8393 3.21965C10.3719 3.68702 10.0463 4.24488 9.85933 4.83285C9.67239 4.24187 9.34676 3.68702 8.87939 3.21965C6.15353 0.493854 2.10402 0.789352 1.44668 1.44668C0.78935 2.10402 0.493851 6.15355 3.21968 8.87936C3.79558 9.4553 4.5042 9.81715 5.24895 9.96792C3.74132 11.2735 3.56946 13.339 3.85891 13.7431C4.16645 14.1712 6.39177 14.711 8.17378 13.4596C8.0924 13.6978 8.01399 13.9421 7.93558 14.1953C7.19083 16.6317 6.91341 18.7062 7.31143 18.8268C7.71247 18.9504 8.64115 17.0749 9.38594 14.6386C9.57288 14.0265 9.73271 13.4355 9.85632 12.8927C9.97998 13.4355 10.1398 14.0265 10.3267 14.6386C11.0715 17.0749 12.0002 18.9504 12.4013 18.8268C12.8023 18.7032 12.5219 16.6287 11.7771 14.1953C11.6987 13.9421 11.6203 13.6978 11.5389 13.4596C13.3209 14.711 15.5492 14.1712 15.8537 13.7431C16.1432 13.339 15.9713 11.2765 14.4637 9.96792C15.2085 9.81715 15.9171 9.4553 16.493 8.87936C19.2188 6.15355 18.9233 2.10402 18.266 1.44668H18.272ZM9.85933 9.90459C8.55978 9.90459 7.43504 9.16585 6.87422 8.08636C8.38486 8.08035 9.63321 6.95862 9.83222 5.50224C9.83823 5.46607 9.88348 5.46607 9.88648 5.50224C10.0855 6.95862 11.3338 8.08335 12.8445 8.08636C12.2837 9.16585 11.1589 9.90459 9.85933 9.90459Z" fill="#D0D0D0"/>
</svg>
