<svg width="162" height="162" viewBox="0 0 162 162" fill="none" xmlns="http://www.w3.org/2000/svg">
<path id="Vector" d="M81 139.32C60.75 139.32 42.849 128.952 32.4 113.4C32.643 97.2 64.8 88.29 81 88.29C97.2 88.29 129.357 97.2 129.6 113.4C119.151 128.952 101.25 139.32 81 139.32ZM81 24.3C87.4448 24.3 93.6256 26.8602 98.1827 31.4173C102.74 35.9744 105.3 42.1552 105.3 48.6C105.3 55.0448 102.74 61.2256 98.1827 65.7827C93.6256 70.3398 87.4448 72.9 81 72.9C74.5552 72.9 68.3744 70.3398 63.8173 65.7827C59.2602 61.2256 56.7 55.0448 56.7 48.6C56.7 42.1552 59.2602 35.9744 63.8173 31.4173C68.3744 26.8602 74.5552 24.3 81 24.3ZM81 0C70.3629 0 59.83 2.09513 50.0026 6.16576C40.1753 10.2364 31.2459 16.2028 23.7244 23.7244C8.5339 38.9148 0 59.5175 0 81C0 102.483 8.5339 123.085 23.7244 138.276C31.2459 145.797 40.1753 151.764 50.0026 155.834C59.83 159.905 70.3629 162 81 162C102.483 162 123.085 153.466 138.276 138.276C153.466 123.085 162 102.483 162 81C162 36.207 125.55 0 81 0Z" fill="#D7D7D7"/>
</svg>
