<svg xmlns="http://www.w3.org/2000/svg" width="87" height="158" viewBox="0 0 87 158" fill="none">
  <path d="M18.8894 113.275L58.7951 90.2354M98.8549 67.1069L138.761 44.0673M141.424 42.6321C161.395 77.2227 149.544 121.454 114.953 141.425C80.3624 161.395 36.1315 149.544 16.1606 114.953C-3.81037 80.3626 8.04126 36.1317 42.6319 16.1607C77.2226 -3.81019 121.453 8.04145 141.424 42.6321ZM97.9749 67.7176C104.091 78.3118 100.462 91.8586 89.8675 97.9751C79.2733 104.092 65.7266 100.462 59.61 89.8677C53.4934 79.2735 57.1233 65.7267 67.7175 59.6102C78.3116 53.4936 91.8584 57.1235 97.9749 67.7176Z" stroke="black" stroke-opacity="0.03" stroke-width="12" style="mix-blend-mode:darken"/>
</svg>