<svg xmlns="http://www.w3.org/2000/svg" width="137" height="159" viewBox="0 0 137 159" fill="none">
  <path d="M-19.9026 109.122L25.3471 82.9973M70.7716 56.7715L116.021 30.6465M119.042 29.0191C141.687 68.242 128.248 118.396 89.0255 141.042C49.8026 163.687 -0.351587 150.248 -22.9969 111.025C-45.6423 71.8023 -32.2035 21.6482 7.01937 -0.997192C46.2423 -23.6426 96.3964 -10.2038 119.042 29.0191ZM69.7737 57.464C76.7094 69.477 72.5935 84.8378 60.5805 91.7735C48.5676 98.7092 33.2068 94.5932 26.2711 82.5803C19.3354 70.5674 23.4514 55.2065 35.4643 48.2709C47.4772 41.3352 62.8381 45.4511 69.7737 57.464Z" stroke="black" stroke-opacity="0.03" stroke-width="12" style="mix-blend-mode:darken"/>
</svg>