<svg width="44" height="44" viewBox="0 0 44 44" fill="none" xmlns="http://www.w3.org/2000/svg">
<g id="Group 679">
<circle id="Ellipse 3" cx="22" cy="22" r="22" fill="#0F60CE"/>
<path id="Vector" d="M22.3492 25.203C21.3282 25.203 20.3489 24.7974 19.6269 24.0754C18.9049 23.3534 18.4992 22.3741 18.4992 21.353C18.4992 20.3319 18.9049 19.3527 19.6269 18.6307C20.3489 17.9087 21.3282 17.503 22.3492 17.503C23.3703 17.503 24.3496 17.9087 25.0716 18.6307C25.7936 19.3527 26.1992 20.3319 26.1992 21.353C26.1992 22.3741 25.7936 23.3534 25.0716 24.0754C24.3496 24.7974 23.3703 25.203 22.3492 25.203ZM30.5222 22.42C30.5662 22.068 30.5992 21.716 30.5992 21.353C30.5992 20.99 30.5662 20.627 30.5222 20.253L32.8432 18.46C33.0522 18.295 33.1072 17.998 32.9752 17.756L30.7752 13.95C30.6432 13.708 30.3462 13.609 30.1042 13.708L27.3652 14.808C26.7932 14.379 26.1992 14.005 25.5062 13.73L25.0992 10.815C25.0552 10.551 24.8242 10.353 24.5492 10.353H20.1492C19.8742 10.353 19.6432 10.551 19.5992 10.815L19.1922 13.73C18.4992 14.005 17.9052 14.379 17.3332 14.808L14.5942 13.708C14.3522 13.609 14.0552 13.708 13.9232 13.95L11.7232 17.756C11.5802 17.998 11.6462 18.295 11.8552 18.46L14.1762 20.253C14.1322 20.627 14.0992 20.99 14.0992 21.353C14.0992 21.716 14.1322 22.068 14.1762 22.42L11.8552 24.246C11.6462 24.411 11.5802 24.708 11.7232 24.95L13.9232 28.756C14.0552 28.998 14.3522 29.086 14.5942 28.998L17.3332 27.887C17.9052 28.327 18.4992 28.701 19.1922 28.976L19.5992 31.891C19.6432 32.155 19.8742 32.353 20.1492 32.353H24.5492C24.8242 32.353 25.0552 32.155 25.0992 31.891L25.5062 28.976C26.1992 28.69 26.7932 28.327 27.3652 27.887L30.1042 28.998C30.3462 29.086 30.6432 28.998 30.7752 28.756L32.9752 24.95C33.1072 24.708 33.0522 24.411 32.8432 24.246L30.5222 22.42Z" fill="white"/>
</g>
</svg>
